General
Complete name                            : Dragon_Tales_We_Can_Solve_It_Together_2003_NTSC_DVD5.iso
Format                                   : ISO 9660 / UDF (DVD-Video Image)
File size                                : 4.12 GiB
Duration                                 : 1 h 5 min (65 min 12 s)
Overall bit rate mode                    : Variable
Overall bit rate                         : 9 032 kb/s
Title                                    : DRAGON_TALES_8
Released date                            : 2003-12-09
Publisher                                : Columbia TriStar Home Entertainment
Country of origin                        : United States
Language                                 : English / Spanish
Region code                              : Region 1 (NTSC)
Structure                                : DVD-5 (Single Layer)
VIDEO_TS size                            : 4 213 224 448 bytes

Video
ID                                       : 224 (0xE0)
Format                                   : MPEG Video
Format version                           : Version 2
Format profile                           : Main@Main
Format settings                          : BVOP
Format settings, BVOP                    : Yes
Format settings, Matrix                  : Default
Format settings, GOP                     : Variable
Duration                                 : 1 h 5 min
Bit rate mode                            : Variable
Bit rate                                 : 5 210 kb/s
Maximum bit rate                         : 8 000 kb/s
Width                                    : 720 pixels
Height                                   : 480 pixels
Display aspect ratio                     : 4:3
Frame rate                               : 29.970 (30000/1001) FPS
Standard                                 : NTSC
Color space                              : YUV
Chroma subsampling                       : 4:2:0
Bit depth                                : 8 bits
Scan type                                : Interlaced
Scan order                               : Bottom Field First
Compression mode                         : Lossy
Bits/(Pixel*Frame)                       : 0.503
Stream size                              : 3.23 GiB (78%)

Audio #1 (Primary)
ID                                       : 128 (0x80) / 0x80
Format                                   : AC-3
Format/Info                              : Audio Coding 3
Commercial name                          : Dolby Digital
Muxing mode                              : DVD-Video
Duration                                 : 1 h 5 min
Bit rate mode                            : Constant
Bit rate                                 : 192 kb/s
Channel(s)                               : 2 channels
Channel layout                           : L R
Sampling rate                            : 48.0 kHz
Frame rate                               : 31.250 FPS (1536 SPF)
Bit depth                                : 16 bits
Compression mode                         : Lossy
Stream size                              : 125 MiB (3.1%)
Language                                 : English
Service kind                             : Complete Main

Audio #2
ID                                       : 129 (0x81) / 0x81
Format                                   : AC-3
Format/Info                              : Audio Coding 3
Commercial name                          : Dolby Digital
Muxing mode                              : DVD-Video
Duration                                 : 1 h 5 min
Bit rate mode                            : Constant
Bit rate                                 : 192 kb/s
Channel(s)                               : 2 channels
Channel layout                           : L R
Sampling rate                            : 48.0 kHz
Frame rate                               : 31.250 FPS (1536 SPF)
Bit depth                                : 16 bits
Compression mode                         : Lossy
Stream size                              : 125 MiB (3.1%)
Language                                 : Spanish
Service kind                             : Complete Main

Text
ID                                       : 0x20
Format                                   : RLE
Format/Info                              : Run-length encoding
Muxing mode                              : DVD-Video
Duration                                 : 1 h 5 min
Bit depth                                : 2 bits
Language                                 : English (Closed Captions / EIA-608 multiplexed in video)